<?xml version="1.0" standalone="no"?>
<!DOCTYPE svg PUBLIC "-//W3C//DTD SVG 20010904//EN"
 "http://www.w3.org/TR/2001/REC-SVG-20010904/DTD/svg10.dtd">
<svg version="1.0" xmlns="http://www.w3.org/2000/svg"
 width="512.000000pt" height="512.000000pt" viewBox="0 0 512.000000 512.000000"
 preserveAspectRatio="xMidYMid meet">
<metadata>
Created by potrace 1.14, written by Peter Selinger 2001-2017
</metadata>
<g transform="translate(0.000000,512.000000) scale(0.100000,-0.100000)"
fill="#000000" stroke="none">
<path d="M2318 4900 c-258 -32 -497 -105 -728 -222 -206 -104 -347 -205 -514
-366 -279 -270 -473 -603 -565 -967 -61 -245 -60 -215 -62 -1540 -1 -1199 2
-1314 32 -1430 26 -95 69 -146 140 -165 66 -18 96 3 314 224 172 174 209 208
266 235 148 72 226 32 409 -209 149 -196 222 -253 324 -253 105 0 174 60 315
273 58 88 136 167 193 196 37 19 63 24 118 24 124 0 189 -46 355 -254 156
-195 213 -237 319 -238 105 -1 192 61 336 237 165 204 228 256 309 257 90 1
174 -65 353 -276 194 -228 222 -245 330 -204 35 13 67 65 85 137 25 100 35
634 30 1666 -4 1087 -3 1060 -68 1320 -126 500 -448 943 -899 1235 -111 72
-331 175 -476 223 -221 73 -377 99 -634 102 -118 2 -245 0 -282 -5z m398 -20
c425 -35 814 -190 1149 -459 49 -39 94 -80 99 -89 5 -9 -14 3 -43 28 -299 253
-658 414 -1061 476 -79 13 -172 18 -300 18 -128 0 -221 -5 -300 -18 -403 -62
-762 -223 -1061 -476 -29 -25 -48 -37 -43 -28 5 9 50 50 99 89 367 295 804
455 1281 468 28 0 109 -4 180 -9z m1314 -612 c0 -6 -7 -5 -15 2 -8 7 -15 17
-15 22 0 6 7 5 15 -2 8 -7 15 -17 15 -22z m-2910 19 c0 -2 -10 -12 -21 -23
-22 -19 -22 -19 -8 4 12 19 29 30 29 19z m1124 -743 c195 -50 360 -214 411
-410 20 -76 19 -220 -1 -298 -60 -233 -273 -408 -516 -423 -112 -8 -192 8
-296 58 -289 139 -405 495 -255 782 101 192 288 306 502 307 53 0 119 -7 155
-16z m1750 1 c195 -51 360 -216 411 -411 19 -73 19 -222 0 -294 -37 -140 -140
-276 -264 -350 -122 -72 -294 -98 -426 -65 -309 79 -496 377 -431 686 43 203
220 387 418 435 74 17 222 17 292 -1z"/>
<path d="M2236 3236 c-53 -20 -84 -44 -123 -95 -99 -128 -55 -314 91 -388 102
-52 229 -30 306 53 54 58 71 102 72 178 0 104 -44 182 -132 230 -64 35 -155
44 -214 22z"/>
<path d="M3976 3230 c-208 -81 -222 -376 -22 -477 39 -20 66 -26 116 -26 77 0
122 17 180 70 57 50 81 107 82 189 1 188 -181 312 -356 244z"/>
</g>
</svg>
