<?xml version="1.0" standalone="no"?>
<!DOCTYPE svg PUBLIC "-//W3C//DTD SVG 20010904//EN"
 "http://www.w3.org/TR/2001/REC-SVG-20010904/DTD/svg10.dtd">
<svg version="1.0" xmlns="http://www.w3.org/2000/svg"
 width="650.000000pt" height="650.000000pt" viewBox="0 0 650.000000 650.000000"
 preserveAspectRatio="xMidYMid meet">
<metadata>
Created by potrace 1.14, written by Peter Selinger 2001-2017
</metadata>
<g transform="translate(0.000000,650.000000) scale(0.100000,-0.100000)"
fill="#000000" stroke="none">
<path d="M3130 5284 c-289 -35 -467 -99 -655 -232 -208 -148 -372 -384 -455
-652 -52 -170 -100 -451 -100 -589 0 -27 -4 -52 -9 -55 -14 -9 -135 30 -177
56 -41 26 -124 110 -142 144 -6 11 -24 70 -40 131 -33 125 -66 190 -115 227
-108 82 -266 74 -343 -17 -57 -67 -74 -122 -74 -237 0 -308 186 -726 478
-1079 78 -93 191 -198 289 -266 24 -17 43 -35 43 -41 0 -6 -15 -66 -34 -135
-75 -269 -165 -495 -269 -669 -26 -44 -167 -232 -241 -323 -70 -85 -72 -110
-16 -170 77 -84 186 -127 326 -127 118 0 221 26 398 102 197 84 236 93 396 93
133 -1 136 -1 255 -44 274 -98 442 -152 503 -162 147 -23 461 45 702 153 197
89 347 79 687 -45 217 -79 311 -100 427 -95 80 3 102 8 158 36 77 37 148 109
148 147 0 36 -12 56 -82 139 -34 39 -88 112 -120 161 -71 107 -220 406 -278
560 -44 117 -110 344 -110 380 0 15 14 31 43 50 289 190 610 654 720 1042 40
139 49 201 49 309 1 114 -19 174 -75 232 -119 124 -327 88 -408 -71 -11 -20
-31 -81 -45 -135 -41 -151 -79 -211 -173 -272 -40 -25 -163 -70 -193 -70 -5 0
-8 22 -8 48 0 140 -57 460 -109 616 -70 206 -146 339 -271 469 -179 188 -408
316 -661 367 -101 21 -336 34 -419 24z m332 -160 c51 -8 119 -24 151 -35 31
-10 61 -19 67 -19 27 0 225 -107 300 -162 14 -11 62 -56 108 -101 96 -95 158
-183 224 -320 47 -97 112 -370 124 -522 3 -44 7 -87 8 -95 2 -8 5 -33 9 -55 3
-22 9 -116 12 -210 14 -408 53 -839 85 -950 5 -16 11 -41 12 -55 2 -14 6 -29
9 -35 4 -5 9 -28 13 -50 8 -44 41 -153 61 -200 43 -99 55 -128 55 -136 0 -10
142 -301 150 -309 3 -3 11 -16 18 -30 34 -69 145 -239 212 -325 78 -99 38
-163 -113 -181 -75 -9 -181 14 -373 82 -304 107 -311 108 -479 109 -132 0
-158 -3 -220 -24 -38 -13 -74 -27 -79 -32 -6 -5 -18 -9 -28 -9 -10 0 -18 -5
-18 -12 0 -6 -3 -9 -6 -5 -3 3 -31 -5 -62 -18 -150 -61 -347 -105 -471 -105
-87 0 -196 28 -391 100 -294 108 -273 103 -425 108 -119 3 -153 1 -230 -18
-49 -12 -108 -30 -130 -40 -243 -110 -325 -134 -455 -135 -93 0 -111 3 -155
26 -59 30 -80 64 -65 105 6 15 44 68 84 118 83 104 177 243 222 331 17 33 39
74 47 90 9 17 32 71 52 120 20 50 40 98 46 107 5 10 9 27 9 37 0 11 4 22 9 25
5 3 17 36 27 73 9 38 21 73 25 78 17 24 54 175 84 345 31 179 50 412 60 750 9
291 14 389 25 455 6 33 15 89 21 125 6 36 23 108 36 160 14 52 28 105 30 118
3 12 9 22 14 22 5 0 9 8 9 18 0 21 42 105 85 172 16 25 34 52 40 61 35 56 57
82 126 152 43 42 83 77 88 77 6 0 15 9 21 20 6 11 14 19 18 17 4 -1 24 11 44
27 43 32 197 101 278 124 173 48 420 64 582 36z m1740 -893 c3 8 16 10 42 5
34 -7 36 -9 20 -20 -17 -13 -16 -14 4 -25 11 -6 27 -11 34 -12 29 -1 62 -61
66 -120 2 -33 8 -59 13 -59 9 0 7 -48 -3 -65 -3 -6 -6 -32 -7 -60 -1 -27 -7
-70 -15 -95 -7 -25 -19 -65 -26 -90 -7 -25 -16 -54 -21 -65 -4 -11 -22 -54
-39 -95 -35 -83 -104 -215 -128 -242 -8 -10 -11 -18 -6 -18 5 0 4 -4 -1 -8 -6
-4 -28 -34 -50 -67 -21 -33 -41 -62 -45 -65 -3 -3 -28 -34 -56 -70 -28 -36
-64 -79 -80 -95 -16 -17 -43 -46 -59 -65 -30 -35 -55 -56 -128 -107 -28 -19
-41 -23 -46 -15 -6 10 -18 116 -36 312 -6 69 -20 417 -20 500 l0 85 45 13 c96
29 130 45 195 95 64 48 144 145 145 175 0 7 8 31 19 55 10 23 24 62 32 87 15
52 39 89 57 90 6 0 12 8 12 18 0 27 40 44 61 25 13 -11 18 -11 21 -2z m-3842
-12 c0 -5 3 -9 8 -8 24 4 52 -18 71 -54 22 -45 47 -113 60 -162 12 -47 52
-111 106 -172 37 -41 70 -65 130 -93 44 -22 96 -42 115 -45 19 -3 40 -11 47
-18 11 -12 8 -174 -12 -542 -6 -116 -32 -342 -41 -356 -16 -27 -231 171 -326
301 -73 101 -143 202 -151 220 -4 8 -18 33 -32 55 -58 95 -134 273 -159 370
-8 33 -20 81 -27 107 -12 49 -17 179 -9 255 3 33 7 40 17 31 10 -8 13 -3 13
22 0 30 2 31 29 25 21 -4 30 -2 34 9 4 11 1 16 -10 16 -13 0 -14 3 -5 12 9 9
15 9 24 0 17 -17 26 -15 39 9 8 15 8 19 0 15 -6 -4 -11 -1 -11 6 0 9 13 12 45
10 25 -2 45 -8 45 -13z"/>
<path d="M3630 4379 c-212 -42 -359 -222 -360 -441 0 -207 136 -378 345 -433
74 -19 123 -19 204 0 205 49 341 221 341 434 0 139 -36 228 -131 321 -107 106
-250 148 -399 119z"/>
<path d="M2530 4163 c-69 -23 -123 -69 -154 -130 -24 -48 -21 -146 6 -200 37
-74 120 -124 205 -122 165 2 268 147 223 311 -12 44 -70 103 -125 129 -38 18
-120 24 -155 12z"/>
<path d="M4048 3284 c-3 -2 -75 -11 -159 -20 -239 -23 -1140 -16 -1399 10
-117 12 -117 -47 -1 -134 80 -60 176 -112 254 -136 64 -20 72 -31 25 -36 -39
-4 -37 10 -44 -277 -4 -183 -2 -212 16 -278 30 -109 61 -162 134 -230 217
-204 577 -203 781 2 115 114 148 224 144 474 -1 91 -5 197 -7 234 l-4 69 -34
-4 c-52 -6 -46 25 8 42 53 15 209 93 265 131 61 42 103 108 85 135 -8 12 -56
26 -64 18z"/>
</g>
</svg>
